<svg fill="#000000" xmlns="http://www.w3.org/2000/svg"  viewBox="0 0 32 32" width="32px" height="32px"><path fill="none" stroke="#000000" stroke-miterlimit="10" stroke-width="2" d="M10 8.25L10 23.75 7.875 27 22.958 27 26 23 15 23 15 5 8 5z"/><path d="M7 10.695c-1.007 1.433-1.684 3.112-1.914 4.93C5.029 16.075 5 16.534 5 17c0 .561.043 1.112.124 1.65.261 1.712.92 3.295 1.876 4.655V10.695zM25 17c0 1.052-.183 2.061-.517 3h2.097c.271-.954.42-1.96.42-3 0-5.382-3.888-9.865-9-10.809v2.041C22.002 9.145 25 12.725 25 17z"/></svg>